# xmcd CD database file
#
# Track frame offsets:
#	150
#	15925
#	30386
#	47292
#	60520
#	72441
#	81590
#	102406
#	129780
#	150189
#	164539
#	175033
#	213469
#	233626
#	248389
#	268157
#	288904
#	309528
#
# Disc length: 4541 seconds
#
# Revision: 0
# Processed by: cddbd v1.5.2PL0 Copyright (c) Steve Scherf et al.
# Submitted via: CDex 1.50beta10
#
DISCID=dd11bb12
DTITLE=Jane Laverne Powell(Lady Jane) - All At Sea
DYEAR=2000
DGENRE=Blues
TTITLE0=I BELIEVE IN MUSIC
TTITLE1=IT'S JUST A MATTERS OF TIME
TTITLE2=I WISH
TTITLE3=BATTLE HYMN OF THE REPUBLIC
TTITLE4=KILLING ME SOFTLY WITH HIS SONG
TTITLE5=I FEEL GOOD
TTITLE6=THE FIRST IME EVER IS SAW YOUR FACE
TTITLE7=STAND BY ME
TTITLE8=I BELIEVE
TTITLE9=I'TT TAKE YOU THERE
TTITLE10=HOW GREAT THOU ART
TTITLE11=CRAZY&CRAZY LOVE
TTITLE12=IF I COULD
TTITLE13=SINCE I FEEL FOR YOU
TTITLE14=HERO (WIND BENEATH MY WINGS)
TTITLE15=AMAZING GRACE
TTITLE16=SAILING
TTITLE17=I'LL ALWAYS LOVE YOU
EXTD=YEAR: 2000
EXTT0=
EXTT1=
EXTT2=
EXTT3=
EXTT4=
EXTT5=
EXTT6=
EXTT7=
EXTT8=
EXTT9=
EXTT10=
EXTT11=
EXTT12=
EXTT13=
EXTT14=
EXTT15=
EXTT16=
EXTT17=
PLAYORDER=
